<svg width="23" height="24" viewBox="0 0 23 24" fill="none" xmlns="http://www.w3.org/2000/svg">
<path d="M15.815 11.0877C16.3987 10.093 16.6508 8.93843 16.5348 7.79101C16.3632 6.08134 15.4087 4.57005 13.8485 3.53601L12.7896 5.13259C13.862 5.84368 14.5146 6.85664 14.6277 7.98268C14.6798 8.50602 14.6147 9.03441 14.437 9.52941C14.2592 10.0244 13.9734 10.4736 13.6003 10.8443L12.458 11.9866L14.0086 12.4418C18.0643 13.6301 18.1112 17.7088 18.1112 17.75H20.0279C20.0279 16.0356 19.1117 12.6852 15.815 11.0877Z" fill="white"/>
<path d="M9.104 12C11.2181 12 12.9373 10.2808 12.9373 8.16671C12.9373 6.05262 11.2181 4.33337 9.104 4.33337C6.98992 4.33337 5.27067 6.05262 5.27067 8.16671C5.27067 10.2808 6.98992 12 9.104 12ZM9.104 6.25004C10.161 6.25004 11.0207 7.10967 11.0207 8.16671C11.0207 9.22375 10.161 10.0834 9.104 10.0834C8.04696 10.0834 7.18734 9.22375 7.18734 8.16671C7.18734 7.10967 8.04696 6.25004 9.104 6.25004ZM10.5415 12.9584H7.6665C4.49538 12.9584 1.9165 15.5372 1.9165 18.7084V19.6667H3.83317V18.7084C3.83317 16.5943 5.55242 14.875 7.6665 14.875H10.5415C12.6556 14.875 14.3748 16.5943 14.3748 18.7084V19.6667H16.2915V18.7084C16.2915 15.5372 13.7126 12.9584 10.5415 12.9584Z" fill="white"/>
</svg>
