<svg width="286" height="276" viewBox="0 0 286 276" fill="none" xmlns="http://www.w3.org/2000/svg">
<path d="M41.8822 255.148C97.7292 282.792 188.271 282.801 244.118 255.148C299.965 227.496 299.957 182.681 244.118 155.037C188.279 127.393 97.7292 127.393 41.8822 155.037C-13.9648 182.681 -13.9567 227.505 41.8822 255.148Z" fill="#F5F5F5"/>
<path d="M243.923 234.719C254.209 234.719 262.547 230.592 262.547 225.501C262.547 220.411 254.209 216.284 243.923 216.284C233.637 216.284 225.299 220.411 225.299 225.501C225.299 230.592 233.637 234.719 243.923 234.719Z" fill="#EBEBEB"/>
<path d="M37.6438 226.823L44.2326 222.875C47.9113 219.757 50.7113 215.665 52.337 211.031C54.3712 205.206 54.0875 200.779 52.6287 198.556C50.8377 195.821 46.1939 196.301 46.0075 202.058C45.6185 213.405 42.4335 221.276 37.6438 226.823Z" fill="#FF6707"/>
<path opacity="0.2" d="M37.6438 226.823L44.2326 222.875C47.9113 219.757 50.7113 215.665 52.337 211.031C54.3712 205.206 54.0875 200.779 52.6287 198.556C50.8377 195.821 46.1939 196.301 46.0075 202.058C45.6185 213.405 42.4335 221.276 37.6438 226.823Z" fill="black"/>
<path d="M37.6437 227.244C37.5579 227.243 37.4746 227.214 37.4059 227.16C37.3372 227.107 37.2866 227.032 37.2613 226.947C37.2361 226.862 37.2375 226.77 37.2655 226.686C37.2934 226.602 37.3464 226.529 37.4167 226.478C52.6529 215.535 49.7029 200.274 49.6705 200.122C49.6593 200.067 49.6587 200.01 49.6688 199.954C49.6788 199.899 49.6993 199.846 49.729 199.799C49.7587 199.751 49.7971 199.711 49.842 199.679C49.8869 199.647 49.9374 199.625 49.9906 199.613C50.0438 199.601 50.0987 199.601 50.1522 199.611C50.2056 199.622 50.2565 199.643 50.3021 199.674C50.3476 199.705 50.3868 199.744 50.4175 199.791C50.4482 199.838 50.4697 199.89 50.4809 199.945C50.4809 200.105 53.593 215.889 37.903 227.168C37.8269 227.222 37.7358 227.249 37.6437 227.244Z" fill="white"/>
<path d="M24.4419 234.744C24.4419 234.744 22.1483 232.808 22.6994 230.182C23.2505 227.555 24.7336 225.67 22.197 222.286C19.6603 218.902 18.9552 214.39 21.9863 211.949C24.296 210.055 27.9024 212.732 29.1991 207.74C30.1554 204.087 29.8313 195.997 34.313 193.304C38.7947 190.61 41.6069 194.667 40.9018 200.156C40.2859 205.063 39.4106 209.786 40.0913 211.099C41.4042 213.624 43.6492 213.279 43.5438 217.892C43.4546 222.185 39.5403 225.737 39.5403 225.737L24.4419 234.744Z" fill="#FF6707"/>
<path d="M31.9712 230.628C31.8721 230.627 31.7767 230.589 31.7024 230.521C31.628 230.453 31.5796 230.359 31.566 230.257C30.4071 220.282 33.1869 203.06 35.4561 197.942C35.4752 197.885 35.5058 197.833 35.5458 197.79C35.5858 197.746 35.6343 197.712 35.6881 197.69C35.7419 197.668 35.7996 197.657 35.8574 197.66C35.9153 197.663 35.9719 197.679 36.0234 197.706C36.0718 197.729 36.1153 197.761 36.1514 197.802C36.1875 197.842 36.2154 197.889 36.2335 197.941C36.2517 197.993 36.2596 198.048 36.2569 198.103C36.2542 198.158 36.241 198.212 36.2179 198.262C33.973 203.312 31.2904 220.585 32.4007 230.123C32.4121 230.233 32.381 230.344 32.3143 230.43C32.2475 230.517 32.1504 230.573 32.0441 230.586L31.9712 230.628Z" fill="white"/>
<path d="M31.7525 222.858C31.6905 222.861 31.6289 222.847 31.5742 222.816C28.762 221.394 26.9791 216.318 26.9061 216.082C26.8863 216.03 26.8767 215.974 26.8781 215.918C26.8794 215.861 26.8915 215.806 26.9138 215.755C26.9361 215.703 26.9681 215.657 27.0079 215.619C27.0476 215.581 27.0944 215.551 27.1453 215.532C27.1963 215.513 27.2504 215.505 27.3045 215.508C27.3586 215.511 27.4116 215.525 27.4603 215.549C27.509 215.574 27.5525 215.608 27.5882 215.651C27.6238 215.693 27.651 215.742 27.668 215.796C27.668 215.846 29.4104 220.762 31.9308 222.033C32.0135 222.075 32.0801 222.145 32.1198 222.231C32.1594 222.317 32.1697 222.414 32.149 222.507C32.1282 222.6 32.0777 222.683 32.0057 222.742C31.9337 222.801 31.8444 222.834 31.7525 222.833V222.858Z" fill="white"/>
<path d="M31.7036 226.226C31.6224 226.226 31.5431 226.2 31.4764 226.152C31.4098 226.103 31.3589 226.035 31.3308 225.956C31.2904 225.853 31.2908 225.738 31.3318 225.636C31.3728 225.533 31.451 225.452 31.5496 225.409C36.2825 223.439 39.2325 217.589 39.2649 217.522C39.3143 217.422 39.3998 217.347 39.5023 217.313C39.6049 217.28 39.7163 217.289 39.812 217.341C39.9076 217.392 39.9797 217.481 40.0124 217.587C40.045 217.694 40.0356 217.81 39.9862 217.909C39.8565 218.161 36.866 224.104 31.8819 226.192C31.8263 226.219 31.7648 226.231 31.7036 226.226Z" fill="white"/>
<path d="M197.137 180.938C197.137 180.938 193.595 174.978 193.247 168.505C192.898 162.032 194.268 159.338 196.148 158.564C198.029 157.79 198.174 160.172 199.139 161.577C200.103 162.983 202.073 162.184 202.802 157.798C203.531 153.412 206.19 146.013 211.717 144.574C217.795 143.008 214.537 150.416 213.005 153.303C211.474 156.19 210.29 160.13 211.295 161.199C212.3 162.268 213.864 160.29 215.347 162.125C217.155 164.338 211.538 172.31 208.313 174.238L197.137 180.938Z" fill="#FF6707"/>
<path d="M201.992 178.438C201.938 178.436 201.886 178.423 201.838 178.4C201.789 178.377 201.746 178.344 201.71 178.303C201.674 178.262 201.646 178.215 201.627 178.163C201.609 178.111 201.6 178.056 201.603 178C202.151 167.587 205.278 157.498 210.679 148.707C210.71 148.661 210.749 148.622 210.795 148.593C210.84 148.563 210.891 148.543 210.944 148.535C210.997 148.526 211.051 148.528 211.103 148.542C211.155 148.556 211.204 148.58 211.247 148.614C211.332 148.68 211.389 148.777 211.405 148.886C211.422 148.994 211.397 149.105 211.336 149.195C206.031 157.857 202.961 167.792 202.421 178.042C202.418 178.098 202.404 178.152 202.381 178.202C202.358 178.252 202.325 178.296 202.285 178.333C202.246 178.37 202.199 178.398 202.149 178.416C202.098 178.434 202.045 178.441 201.992 178.438Z" fill="white"/>
<path d="M202.454 173.463C202.386 173.463 202.319 173.445 202.259 173.413C199.99 172.108 198.734 168.236 198.685 168.076C198.667 168.023 198.66 167.968 198.662 167.912C198.665 167.857 198.679 167.802 198.702 167.752C198.726 167.702 198.758 167.657 198.799 167.62C198.839 167.583 198.886 167.555 198.936 167.537C199.038 167.503 199.15 167.512 199.245 167.562C199.341 167.613 199.413 167.701 199.447 167.807C199.447 167.807 200.663 171.536 202.689 172.672C202.78 172.728 202.848 172.819 202.876 172.926C202.905 173.033 202.893 173.147 202.843 173.244C202.806 173.317 202.749 173.376 202.68 173.415C202.611 173.454 202.532 173.471 202.454 173.463Z" fill="white"/>
<path d="M202.851 170.913C202.761 170.912 202.674 170.88 202.604 170.822C202.533 170.764 202.484 170.683 202.462 170.593C202.449 170.54 202.446 170.484 202.453 170.43C202.461 170.376 202.479 170.324 202.506 170.277C202.533 170.23 202.569 170.189 202.611 170.156C202.654 170.124 202.702 170.101 202.754 170.088C208.605 168.547 210.631 165.365 210.647 165.332C210.676 165.285 210.714 165.244 210.757 165.212C210.801 165.18 210.851 165.158 210.903 165.145C210.955 165.133 211.009 165.132 211.062 165.142C211.115 165.151 211.165 165.172 211.211 165.201C211.256 165.231 211.295 165.27 211.326 165.316C211.357 165.361 211.378 165.413 211.39 165.467C211.402 165.521 211.403 165.577 211.394 165.632C211.385 165.687 211.365 165.739 211.336 165.786C211.247 165.929 209.14 169.271 202.956 170.904L202.851 170.913Z" fill="white"/>
<path d="M108.962 167.857C108.962 167.857 101.19 165.887 100.784 150.769C100.355 134.456 102.689 115.415 93.4904 113.875C84.292 112.334 79.1862 123.976 79.2997 137.57C79.4051 149.473 84.0245 175.315 108.929 180.383L108.962 167.857Z" fill="#FF6707"/>
<path opacity="0.2" d="M108.962 167.857C108.962 167.857 101.19 165.887 100.784 150.769C100.355 134.456 102.689 115.415 93.4904 113.875C84.292 112.334 79.1862 123.976 79.2997 137.57C79.4051 149.473 84.0245 175.315 108.929 180.383L108.962 167.857Z" fill="black"/>
<path d="M108.962 178.834H108.889C103.288 177.773 98.7257 174.566 95.33 169.313C85.2644 153.715 88.4332 124.59 89.4787 119.506C89.5021 119.397 89.5649 119.303 89.6541 119.242C89.7432 119.18 89.8517 119.157 89.9568 119.178C90.0618 119.204 90.153 119.271 90.2118 119.365C90.2706 119.459 90.2925 119.572 90.2729 119.683C89.2437 124.733 86.0911 153.488 96.0027 168.842C97.4454 171.223 99.3488 173.267 101.592 174.843C103.836 176.42 106.37 177.495 109.034 178C109.087 178.01 109.138 178.031 109.183 178.062C109.228 178.092 109.267 178.132 109.297 178.178C109.327 178.224 109.348 178.276 109.359 178.331C109.369 178.386 109.369 178.442 109.359 178.497C109.341 178.593 109.292 178.679 109.219 178.741C109.147 178.802 109.055 178.835 108.962 178.834Z" fill="white"/>
<path d="M108.962 217.631C100.931 218.759 87.891 218.742 80.3621 212.58C72.8332 206.419 74.4054 201.116 77.2986 198.902C80.1919 196.688 82.7042 194.163 77.7282 189.247C72.7521 184.331 64.7612 176.435 62.1678 164.591C59.5745 152.748 60.8549 145.34 65.9445 142.874C70.88 140.483 72.1848 144.288 75.2077 152.133C78.2306 159.978 85.0302 153.253 90.8491 155.702C96.668 158.152 96.433 163 96.7977 167.167C97.1624 171.334 99.0831 172.487 102.382 172.487C105.68 172.487 108.962 174.457 108.962 178.379V217.631Z" fill="#FF6707"/>
<path d="M108.962 203.876C108.927 203.884 108.891 203.884 108.857 203.876C108.508 203.775 100.201 201.267 88.1013 189.726C75.2154 177.436 69.1372 159.002 69.0723 158.816C69.0413 158.71 69.0509 158.596 69.0993 158.497C69.1476 158.398 69.2309 158.323 69.3317 158.286C69.4327 158.251 69.5429 158.259 69.6385 158.308C69.734 158.357 69.8072 158.443 69.8422 158.547C69.899 158.732 75.9205 176.965 88.6524 189.103C100.582 200.492 108.986 203.043 109.075 203.068C109.126 203.084 109.174 203.109 109.216 203.144C109.257 203.179 109.292 203.221 109.317 203.27C109.343 203.318 109.359 203.372 109.365 203.427C109.37 203.481 109.366 203.537 109.351 203.59C109.325 203.675 109.272 203.749 109.202 203.801C109.132 203.852 109.048 203.879 108.962 203.876Z" fill="white"/>
<path d="M91.4808 192.656C91.3994 192.657 91.3196 192.632 91.2527 192.583C91.1858 192.535 91.1352 192.466 91.108 192.386C88.5065 185.45 87.9149 170.61 87.8663 169.978C87.864 169.867 87.9033 169.76 87.9758 169.678C88.0484 169.597 88.1485 169.547 88.2553 169.541C88.3611 169.542 88.4627 169.584 88.5405 169.659C88.6182 169.734 88.6668 169.835 88.6767 169.945C88.6767 170.096 89.2846 185.273 91.8374 192.083C91.8569 192.135 91.8664 192.191 91.8651 192.246C91.8638 192.302 91.8519 192.357 91.83 192.408C91.8082 192.459 91.7768 192.505 91.7377 192.543C91.6986 192.581 91.6526 192.611 91.6024 192.63C91.5633 192.645 91.5223 192.654 91.4808 192.656Z" fill="white"/>
<path d="M91.4161 202.63C90.669 202.636 89.9221 202.597 89.1793 202.513C89.1261 202.506 89.0747 202.488 89.028 202.461C88.9812 202.434 88.9401 202.397 88.907 202.354C88.8739 202.31 88.8494 202.26 88.835 202.206C88.8205 202.152 88.8163 202.096 88.8227 202.041C88.8291 201.986 88.8459 201.932 88.8722 201.884C88.8984 201.835 88.9337 201.793 88.9758 201.758C89.0179 201.724 89.0662 201.699 89.1178 201.683C89.1694 201.668 89.2234 201.664 89.2766 201.671C89.3495 201.671 96.8947 202.563 100.355 198.901C100.391 198.857 100.436 198.821 100.486 198.795C100.536 198.77 100.591 198.755 100.646 198.753C100.702 198.75 100.758 198.759 100.81 198.78C100.862 198.801 100.909 198.833 100.949 198.873C100.989 198.914 101.02 198.963 101.041 199.017C101.062 199.07 101.072 199.128 101.07 199.186C101.068 199.244 101.055 199.301 101.031 199.353C101.007 199.406 100.973 199.453 100.931 199.491C98.4264 202.176 94.0581 202.63 91.4161 202.63Z" fill="white"/>
<path d="M85.5809 43.2332L84.7057 37.989L80.1997 41.0699C79.7879 40.2282 79.2044 39.4899 78.4897 38.9065L80.6454 32.8458L76.5932 31.9114L73.6271 37.8038C72.5539 37.9919 71.5134 38.3436 70.5393 38.8476L69.2507 34.4031L64.4367 38.3341L64.7528 43.5531C63.7725 44.6937 62.8835 45.9155 62.0946 47.2064L58.1235 46.9959L55.3356 53.486L58.7475 55.0011C58.3913 56.3435 58.166 57.7197 58.0748 59.109L53.739 63.2505L54.6062 68.5031L59.1203 65.4222C59.5297 66.2632 60.1137 66.9992 60.8303 67.5772L58.7151 73.6463L62.7672 74.5723L67.0139 70.2792C67.9945 70.1193 67.7514 68.2001 68.8212 67.6529L70.1098 72.0806L74.9156 68.158L74.7941 66.1041C75.7666 64.9761 79.446 62.4929 80.2402 61.1966L81.237 59.513L84.0249 53.023L82.7282 50.5819L81.2857 47.4L85.5809 43.2332ZM70.8716 60.4979C67.176 63.5114 66.009 64.1764 65.3849 60.1443C64.7609 56.1123 66.8761 49.9842 70.5717 46.9623C74.2673 43.9403 75.6775 43.7299 76.342 47.7535C77.0066 51.7772 74.5753 57.518 70.8716 60.4979Z" fill="#67828F"/>
<path d="M76.6259 31.9114L81.8856 35.0596L78.9194 40.9352L73.6597 37.787L76.6259 31.9114Z" fill="#879CA7"/>
<path d="M89.9654 41.1373L85.4594 44.2182L80.1997 41.0699L84.7057 37.9891L89.9654 41.1373Z" fill="#67828F"/>
<path d="M89.2441 56.1458L85.8322 54.6391L80.5725 51.4908L83.9844 52.9976L89.2441 56.1458Z" fill="#67828F"/>
<path d="M58.7068 73.6462L63.9665 76.786L66.1223 70.7252L60.8625 67.577L58.7068 73.6462Z" fill="#67828F"/>
<path d="M75.3207 75.2287L70.0691 72.0805L68.7805 67.6528L74.0402 70.801L75.3207 75.2287Z" fill="#67828F"/>
<path d="M90.8327 46.3814L89.9655 41.1372L85.4595 44.2181C85.0448 43.376 84.4585 42.6377 83.7414 42.0547L85.8971 35.994L81.8855 35.0596L78.9112 40.952C77.8381 41.1401 76.7976 41.4918 75.8234 41.9958L74.5429 37.5681L69.729 41.4992L70.045 46.7181C69.0636 47.8668 68.1746 49.0971 67.3868 50.3967L63.4076 50.1862L60.6197 56.6762L64.0316 58.1914C63.6787 59.5374 63.4534 60.9161 63.359 62.3077L59.0312 66.3902L59.8984 71.6429L64.4044 68.562C64.8193 69.4017 65.4056 70.1371 66.1225 70.7169L63.9668 76.7777L68.019 77.712L70.9851 71.8196C72.0624 71.6337 73.1063 71.2789 74.081 70.7674L75.3615 75.1951L80.1755 71.2725L79.8594 66.0535C80.8397 64.913 81.7287 63.6911 82.5176 62.4003L86.4968 62.6023L89.2847 56.1123L85.8242 54.6055C86.183 53.2605 86.411 51.8815 86.5049 50.4892L90.8327 46.3814ZM76.1395 63.6798C72.452 66.6933 68.9185 65.8768 68.2459 61.8531C67.5732 57.8295 70.0288 52.1139 73.7244 49.1003C77.42 46.0868 80.9454 46.9117 81.618 50.9354C82.2907 54.959 79.8351 60.6662 76.1395 63.6798Z" fill="#455A64"/>
<path d="M74.5429 37.5512L69.2832 34.403L64.4692 38.3341L69.7289 41.4823L74.5429 37.5512Z" fill="#88AABA"/>
<path d="M64.4692 38.334L64.7853 43.553L70.045 46.7012L69.7289 41.4823L64.4692 38.334Z" fill="#7493A1"/>
<path d="M67.3866 50.3545L62.1269 47.2063L58.1558 47.0043L63.4074 50.1525L67.3866 50.3545Z" fill="#879CA7"/>
<path d="M58.1553 47.0043L55.3674 53.4859L60.6191 56.6341L63.4069 50.1525L58.1553 47.0043Z" fill="#9AB2BE"/>
<path d="M63.3592 62.2571L58.1076 59.1089L53.7717 63.2504L59.0233 66.3986L63.3592 62.2571Z" fill="#879CA7"/>
<path d="M59.8986 71.6512L54.6389 68.503L53.7717 63.2504L59.0233 66.3986L59.8986 71.6512Z" fill="#67828F"/>
<path d="M81.8854 35.0596L76.6257 31.9114L80.6455 32.8458L85.8971 35.994L81.8854 35.0596Z" fill="#88AABA"/>
<path d="M62.0296 19.428V11.5912L56.0243 14.4027C55.7062 13.073 55.1569 11.815 54.4034 10.6905L58.1881 2.76942L53.5686 0L48.8519 7.36547C47.5375 7.2462 46.2131 7.38033 44.9456 7.7611L44.2811 0.951202L37.749 4.87384L37.0925 12.4498C35.6709 13.7581 34.3637 15.1947 33.1862 16.7428L28.4695 15.0592L23.85 23.3759L27.6267 26.743C26.9288 28.5759 26.3865 30.4687 26.0058 32.3997L20.0005 36.7853V44.6305L26.0058 41.819C26.3239 43.1487 26.8732 44.4067 27.6267 45.5312L23.8663 53.4607L28.4857 56.2301L33.2024 48.8646C34.5169 48.9835 35.8412 48.8494 37.1087 48.469L37.7652 55.2789L44.2973 51.3563L44.9618 43.7804C47.0006 43.0077 48.8067 41.6894 50.1972 39.9587L53.5849 41.1961L58.2043 32.8879L55.3678 30.3626C55.9836 28.2568 56.2118 26.0493 56.0405 23.8557L62.0296 19.428ZM41.015 39.0075C36.0066 42.0127 32.9107 39.8493 32.9107 33.8643C32.9107 27.8794 37.052 20.4802 42.0686 17.4751C47.0852 14.47 50.1162 16.6333 50.1162 22.6688C50.1162 28.7043 46.0316 35.994 41.015 39.0075Z" fill="#67828F"/>
<path d="M58.8206 3.1398L53.569 0L48.8523 7.36547L54.1039 10.5137L58.8206 3.1398Z" fill="#879CA7"/>
<path d="M67.2894 14.7393L62.0297 11.5911L56.0244 14.4026L61.2841 17.5508L67.2894 14.7393Z" fill="#67828F"/>
<path d="M43.0003 58.427L37.7487 55.2788L37.0923 48.4689L42.3439 51.6171L43.0003 58.427Z" fill="#67828F"/>
<path d="M23.8423 53.4605L29.102 56.6088L32.8867 48.6877L27.627 45.5395L23.8423 53.4605Z" fill="#67828F"/>
<path d="M67.2891 22.6184V14.7815L61.2838 17.5678C60.969 16.2369 60.4195 14.9783 59.6629 13.8556L63.4476 5.93452L58.8282 3.15668L54.1115 10.5306C52.797 10.4071 51.4719 10.5414 50.2052 10.9262L49.5406 4.09946L43.0085 8.0221L42.344 15.598C40.9244 16.9086 39.6174 18.345 38.4377 19.891L33.7209 18.2075L29.1015 26.5242L32.8862 29.8912C32.1847 31.7229 31.6422 33.616 31.2653 35.5479L25.26 39.9335V47.7788L31.2653 44.9673C31.5799 46.2982 32.1295 47.5569 32.8862 48.6795L29.1015 56.6005L33.7209 59.37L38.4377 52.0045C39.7521 52.1238 41.0765 51.9896 42.344 51.6089L43.0085 58.4188L49.5406 54.4961L50.1971 46.9202C51.6187 45.6118 52.9259 44.1752 54.1033 42.6272L58.8201 44.3107L63.4395 36.0025L59.6548 32.6354C60.3561 30.8037 60.8986 28.9106 61.2757 26.9787L67.2891 22.6184ZM46.2745 42.1979C41.258 45.203 37.1896 42.7619 37.1896 36.7516C37.1896 30.7414 41.2418 23.4265 46.2745 20.4129C51.3073 17.3994 55.3514 19.8489 55.3514 25.8592C55.3514 31.8694 51.283 39.1423 46.2745 42.1558V42.1979Z" fill="#455A64"/>
<path d="M33.1865 16.7598L38.4381 19.908L33.7213 18.1992L28.4697 15.0426L33.1865 16.7598Z" fill="#A0B9C6"/>
<path d="M28.4691 15.0508L23.8484 23.3703L29.1063 26.5208L33.7271 18.2013L28.4691 15.0508Z" fill="#9AB2BE"/>
<path d="M23.8423 23.3591L29.102 26.5073L32.8867 29.8912L27.627 26.7514L23.8423 23.3591Z" fill="#67828F"/>
<path d="M26.0058 32.4082L31.2655 35.5564L25.2602 39.942L20.0005 36.7938L26.0058 32.4082Z" fill="#879CA7"/>
<path d="M20.0005 36.7935L25.2602 39.9417V47.787L20.0005 44.6388V36.7935Z" fill="#67828F"/>
<path d="M49.5411 4.09932L44.2814 0.951111L37.7493 4.87375L43.0009 8.02197L49.5411 4.09932Z" fill="#88AABA"/>
<path d="M116.969 228.894L193.149 183.202C193.317 183.141 193.463 183.027 193.566 182.877C193.668 182.726 193.724 182.545 193.724 182.361C193.724 182.176 193.668 181.996 193.566 181.845C193.463 181.694 193.317 181.58 193.149 181.519L186.107 177.31C185.671 177.082 185.189 176.963 184.701 176.963C184.212 176.963 183.731 177.082 183.295 177.31L107.09 222.959C106.922 223.02 106.776 223.134 106.673 223.285C106.571 223.436 106.515 223.616 106.515 223.801C106.515 223.986 106.571 224.166 106.673 224.317C106.776 224.468 106.922 224.581 107.09 224.643L114.157 228.852C114.59 229.086 115.069 229.212 115.558 229.219C116.046 229.227 116.529 229.115 116.969 228.894Z" fill="#E0E0E0"/>
<path d="M191.058 6.79312L122.366 47.9893C121.345 48.6814 120.495 49.6137 119.885 50.7105C119.276 51.8073 118.923 53.0379 118.857 54.3025V223.557C118.857 225.88 120.429 226.823 122.366 225.661L191.058 184.465C192.081 183.774 192.932 182.843 193.542 181.745C194.151 180.648 194.503 179.417 194.568 178.152V8.89754C194.568 6.57426 193.003 5.63147 191.058 6.79312Z" fill="#455A64"/>
<path d="M122.366 47.9892L191.058 6.7931C192.793 5.74931 194.227 6.39747 194.519 8.20727C194.357 7.06941 193.965 5.98007 193.368 5.01092C192.772 4.04176 191.985 3.21474 191.058 2.58426L188.206 0.900726C187.118 0.327651 185.916 0.0289917 184.696 0.0289917C183.477 0.0289917 182.275 0.327651 181.187 0.900726L112.487 42.0632C111.452 42.7371 110.599 43.6726 110.007 44.7821L119.886 50.6745C120.478 49.5737 121.332 48.6491 122.366 47.9892Z" fill="#37474F"/>
<path d="M108.962 217.631C109.028 218.896 109.381 220.126 109.99 221.223C110.6 222.32 111.45 223.252 112.471 223.944L115.332 225.628C116.322 226.142 117.406 226.434 118.512 226.483C119.618 226.532 120.722 226.338 121.751 225.914C120.13 226.57 118.841 225.602 118.841 223.523V54.3026C118.882 53.0326 119.236 51.7948 119.87 50.7082L109.991 44.8159C109.366 45.8942 109.012 47.1187 108.962 48.3765V217.631Z" fill="#263238"/>
<path d="M124.254 70.5401L189.194 31.6083C190.362 30.9181 191.302 31.4821 191.302 32.871V158.143C191.263 158.902 191.051 159.641 190.685 160.299C190.319 160.958 189.808 161.517 189.194 161.931L124.279 200.863C123.112 201.561 122.172 200.997 122.172 199.6V74.3281C122.209 73.5713 122.416 72.8341 122.778 72.176C123.14 71.518 123.646 70.9576 124.254 70.5401Z" fill="white"/>
<path d="M156.713 33.8055C156.354 34.0499 156.056 34.3784 155.842 34.7643C155.628 35.1503 155.504 35.5831 155.481 36.0278C155.481 36.8695 156.032 37.181 156.713 36.7685C157.072 36.5256 157.372 36.1976 157.586 35.8113C157.8 35.425 157.923 34.9915 157.944 34.5463C157.944 33.7298 157.393 33.4015 156.713 33.8055Z" fill="#37474F"/>
<path d="M156.712 187.386C155.295 188.349 154.117 189.645 153.272 191.168C152.427 192.692 151.94 194.401 151.85 196.157C151.85 199.381 154.03 200.695 156.712 199.078C158.129 198.115 159.307 196.819 160.151 195.296C160.996 193.772 161.484 192.063 161.575 190.307C161.591 187.083 159.403 185.77 156.712 187.386Z" fill="#37474F"/>
<path d="M145.05 46.8359C144.338 47.327 143.747 47.9851 143.324 48.7571C142.902 49.5291 142.66 50.3935 142.619 51.2804C142.619 52.9134 143.721 53.5784 145.05 52.7619C145.77 52.2755 146.369 51.6194 146.799 50.8471C147.228 50.0748 147.476 49.208 147.522 48.3174C147.522 46.6843 146.42 46.0193 145.05 46.8359Z" fill="#37474F"/>
<path d="M151.104 46.2804C151.104 47.3746 151.915 47.7871 152.863 47.2063L169.072 37.467C169.574 37.1413 169.995 36.6971 170.3 36.1706C170.606 35.644 170.787 35.0499 170.83 34.4367C170.83 33.3508 170.02 32.9383 169.072 33.5191L152.863 43.2584C152.362 43.5833 151.942 44.0261 151.636 44.5512C151.33 45.0762 151.148 45.6686 151.104 46.2804Z" fill="#37474F"/>
<path d="M114.44 75.961C115.015 76.3501 115.494 76.8745 115.837 77.4917C116.181 78.1088 116.38 78.8014 116.418 79.5133C116.418 80.8264 115.534 81.3567 114.44 80.7002C113.867 80.3096 113.39 79.7847 113.048 79.1677C112.706 78.5507 112.508 77.8588 112.471 77.1479C112.471 75.8432 113.354 75.3128 114.44 75.961Z" fill="#37474F"/>
<path d="M114.44 91.7698C115.015 92.1589 115.494 92.6833 115.837 93.3005C116.181 93.9176 116.38 94.6102 116.418 95.322C116.418 96.6268 115.534 97.1571 114.44 96.5089C113.867 96.1184 113.39 95.5935 113.048 94.9765C112.706 94.3595 112.508 93.6676 112.471 92.9567C112.471 91.6435 113.354 91.1132 114.44 91.7698Z" fill="#37474F"/>
<path d="M113.824 76.2809C114.399 76.67 114.878 77.1944 115.222 77.8116C115.565 78.4288 115.764 79.1214 115.802 79.8332C115.802 81.1379 114.918 81.6682 113.824 81.0201C113.249 80.631 112.77 80.1066 112.427 79.4894C112.083 78.8722 111.884 78.1797 111.847 77.4678C111.855 76.1547 112.738 75.6496 113.824 76.2809Z" fill="#455A64"/>
<path d="M113.824 92.0811C114.4 92.471 114.88 92.9968 115.223 93.6155C115.567 94.2342 115.765 94.9285 115.802 95.6418C115.802 96.9465 114.918 97.4768 113.824 96.8203C113.248 96.4327 112.768 95.9086 112.424 95.2911C112.08 94.6736 111.882 93.9803 111.847 93.268C111.855 91.9633 112.738 91.433 113.824 92.0811Z" fill="#455A64"/>
<path d="M204.447 36.8359C204.447 35.4386 203.507 34.8746 202.34 35.5732L194.567 40.2282L137.424 74.505C136.81 74.9193 136.299 75.4783 135.933 76.1366C135.567 76.7949 135.356 77.5338 135.317 78.293V203.531C135.317 204.929 136.257 205.493 137.424 204.794L194.592 170.509L202.34 165.862C202.953 165.448 203.464 164.889 203.83 164.231C204.197 163.572 204.408 162.833 204.447 162.074V36.8359Z" fill="white"/>
<path d="M205.257 36.8359C205.308 36.4138 205.238 35.9854 205.056 35.6044C204.874 35.2233 204.588 34.9065 204.233 34.6936C203.878 34.4807 203.471 34.3811 203.062 34.4073C202.654 34.4335 202.261 34.5843 201.935 34.8409L194.519 39.2939L137.019 73.8064C136.279 74.2917 135.663 74.9568 135.225 75.7443C134.788 76.5318 134.541 77.4181 134.506 78.3267V203.531C134.474 203.952 134.552 204.373 134.732 204.751C134.911 205.129 135.186 205.449 135.528 205.678C135.818 205.853 136.148 205.943 136.484 205.939C136.959 205.923 137.422 205.781 137.829 205.526L195.37 171.014L202.769 166.578C203.505 166.088 204.118 165.421 204.555 164.635C204.992 163.848 205.241 162.965 205.282 162.057L205.257 36.8359ZM194.535 169.574L193.871 169.978L137.051 204.053C136.956 204.129 136.845 204.183 136.727 204.209C136.61 204.235 136.488 204.234 136.37 204.205C136.265 204.137 136.16 203.902 136.16 203.514V78.293C136.202 77.6818 136.377 77.0885 136.672 76.5577C136.966 76.027 137.373 75.5727 137.862 75.229L194.624 41.1374L202.729 36.2635C202.824 36.1873 202.935 36.1342 203.053 36.108C203.17 36.0818 203.292 36.0831 203.41 36.112C203.515 36.1794 203.62 36.4151 203.62 36.8023V162.074C203.578 162.685 203.403 163.279 203.109 163.809C202.814 164.34 202.407 164.795 201.918 165.138L194.519 169.574H194.535Z" fill="#FF6707"/>
<path d="M169.882 65.9359C177.176 61.5755 183.052 65.0941 183.052 73.8401C183.052 82.5861 177.152 93.2008 169.882 97.5275C162.613 101.854 156.713 98.3692 156.713 89.6317C156.713 80.8941 162.613 70.3047 169.882 65.9359Z" fill="#FF6707"/>
<path d="M169.882 72.8048C172.24 71.3906 174.153 72.5354 174.153 75.3301C174.073 76.8696 173.644 78.3679 172.902 79.7032C172.16 81.0385 171.125 82.1733 169.882 83.0154C167.523 84.4296 165.611 83.2848 165.611 80.4901C165.691 78.9505 166.119 77.4523 166.862 76.117C167.604 74.7817 168.638 73.6469 169.882 72.8048Z" fill="#FF6707"/>
<path d="M178.205 87.8891C178.205 83.2425 175.069 81.3569 171.187 83.6802L168.756 85.1365C164.882 87.4598 161.737 93.1165 161.737 97.763V99.0172C163.982 99.7833 166.803 99.3708 169.842 97.5273C173.208 95.3704 176.055 92.4421 178.165 88.9665L178.205 87.8891Z" fill="#FF6707"/>
<path opacity="0.7" d="M169.882 72.8048C172.24 71.3906 174.153 72.5354 174.153 75.3301C174.073 76.8696 173.644 78.3679 172.902 79.7032C172.16 81.0385 171.125 82.1733 169.882 83.0154C167.523 84.4296 165.611 83.2848 165.611 80.4901C165.691 78.9505 166.119 77.4523 166.862 76.117C167.604 74.7817 168.638 73.6469 169.882 72.8048Z" fill="white"/>
<path opacity="0.7" d="M178.205 87.8891C178.205 83.2425 175.069 81.3569 171.187 83.6802L168.756 85.1365C164.882 87.4598 161.737 93.1165 161.737 97.763V99.0172C163.982 99.7833 166.803 99.3708 169.842 97.5273C173.208 95.3704 176.055 92.4421 178.165 88.9665L178.205 87.8891Z" fill="white"/>
<path d="M144.402 116.761L161.348 106.601C162.159 106.138 162.751 106.509 162.751 107.443V108.024C162.725 108.53 162.584 109.022 162.341 109.461C162.097 109.9 161.757 110.273 161.348 110.549L144.402 120.709C143.632 121.172 143 120.794 143 119.868V119.287C143.027 118.781 143.167 118.289 143.411 117.85C143.654 117.411 143.994 117.038 144.402 116.761Z" fill="#FF6707"/>
<path opacity="0.1" d="M144.402 116.761L161.348 106.601C162.159 106.138 162.751 106.509 162.751 107.443V108.024C162.725 108.53 162.584 109.022 162.341 109.461C162.097 109.9 161.757 110.273 161.348 110.549L144.402 120.709C143.632 121.172 143 120.794 143 119.868V119.287C143.027 118.781 143.167 118.289 143.411 117.85C143.654 117.411 143.994 117.038 144.402 116.761Z" fill="black"/>
<path d="M143.705 129.026L194.973 98.2849C195.354 98.0492 195.67 98.2344 195.67 98.7058V104.918C195.656 105.17 195.586 105.415 195.465 105.634C195.344 105.854 195.176 106.041 194.973 106.181L143.705 136.922C143.316 137.158 143 136.964 143 136.501V130.289C143.014 130.036 143.085 129.79 143.208 129.57C143.33 129.351 143.501 129.165 143.705 129.026Z" fill="#FF6707"/>
<path opacity="0.2" d="M143.705 129.026L194.973 98.2849C195.354 98.0492 195.67 98.2344 195.67 98.7058V104.918C195.656 105.17 195.586 105.415 195.465 105.634C195.344 105.854 195.176 106.041 194.973 106.181L143.705 136.922C143.316 137.158 143 136.964 143 136.501V130.289C143.014 130.036 143.085 129.79 143.208 129.57C143.33 129.351 143.501 129.165 143.705 129.026Z" fill="white"/>
<path d="M144.402 144.397L161.348 134.237C162.159 133.774 162.751 134.153 162.751 135.079V135.66C162.725 136.166 162.585 136.658 162.342 137.097C162.098 137.536 161.758 137.909 161.348 138.185L144.402 148.345C143.632 148.816 143 148.438 143 147.503V146.922C143.028 146.417 143.169 145.925 143.412 145.487C143.656 145.048 143.995 144.675 144.402 144.397Z" fill="#FF6707"/>
<path opacity="0.1" d="M144.402 144.397L161.348 134.237C162.159 133.774 162.751 134.153 162.751 135.079V135.66C162.725 136.166 162.585 136.658 162.342 137.097C162.098 137.536 161.758 137.909 161.348 138.185L144.402 148.345C143.632 148.816 143 148.438 143 147.503V146.922C143.028 146.417 143.169 145.925 143.412 145.487C143.656 145.048 143.995 144.675 144.402 144.397Z" fill="black"/>
<path d="M143.705 156.662L194.973 125.92C195.354 125.685 195.67 125.878 195.67 126.341V132.553C195.656 132.805 195.586 133.051 195.465 133.27C195.344 133.489 195.176 133.676 194.973 133.816L143.705 164.557C143.316 164.793 143 164.608 143 164.136V157.924C143.014 157.671 143.085 157.425 143.208 157.206C143.33 156.986 143.501 156.8 143.705 156.662Z" fill="#FF6707"/>
<path opacity="0.2" d="M143.705 156.662L194.973 125.92C195.354 125.685 195.67 125.878 195.67 126.341V132.553C195.656 132.805 195.586 133.051 195.465 133.27C195.344 133.489 195.176 133.676 194.973 133.816L143.705 164.557C143.316 164.793 143 164.608 143 164.136V157.924C143.014 157.671 143.085 157.425 143.208 157.206C143.33 156.986 143.501 156.8 143.705 156.662Z" fill="white"/>
<path d="M164.152 160.188L184.413 148.059C185.224 147.587 185.823 147.966 185.823 148.9V155.399C185.797 155.905 185.655 156.398 185.41 156.837C185.165 157.276 184.823 157.649 184.413 157.924L164.152 170.062C163.342 170.525 162.75 170.147 162.75 169.221V162.714C162.778 162.208 162.92 161.717 163.163 161.279C163.407 160.84 163.745 160.467 164.152 160.188Z" fill="#FF6707"/>
<path opacity="0.1" d="M164.152 160.188L184.413 148.059C185.224 147.587 185.823 147.966 185.823 148.9V155.399C185.797 155.905 185.655 156.398 185.41 156.837C185.165 157.276 184.823 157.649 184.413 157.924L164.152 170.062C163.342 170.525 162.75 170.147 162.75 169.221V162.714C162.778 162.208 162.92 161.717 163.163 161.279C163.407 160.84 163.745 160.467 164.152 160.188Z" fill="black"/>
<path d="M212.13 132.764C212.13 132.764 202.177 118.504 201.594 116.77C201.132 115.491 201.594 113.588 201.74 112.704C201.886 111.82 202.015 109.851 202.161 109.337C202.404 108.378 201.213 108.571 200.54 109.447C199.868 110.322 199.641 112.073 199.292 112.359C198.944 112.645 196.294 108.63 194.908 106.778C193.522 104.926 192.655 103.798 191.804 104.489C191.196 104.985 191.65 106.063 192.655 107.645C193.242 108.497 193.783 109.383 194.276 110.297C194.43 110.642 193.603 110.667 193.157 111.383C192.809 111.938 193.157 112.839 192.671 113.268C192.372 113.505 192.167 113.847 192.095 114.231C192.023 114.614 192.09 115.012 192.282 115.347C193.184 116.819 194.348 118.099 195.71 119.119C197.201 120.188 197.801 120.566 198.685 122.023C199.568 123.479 207.494 138.353 208.029 139.245C208.564 140.138 209.593 141.956 211.157 142.006C212.721 142.057 225.526 130.609 226.183 130.036C228.29 128.21 228.962 127.949 229.319 129.59C229.442 130.174 229.534 130.764 229.594 131.358C229.846 133.446 231.215 140.904 231.215 140.904C231.215 140.904 237.699 144.161 243.023 142.587C248.348 141.013 250.147 138.664 250.147 138.664L247.481 134.153C248.202 132.292 251.533 124.75 252.611 119.472L235.916 116.669C235.575 116.593 235.024 116.45 234.295 116.257C233.379 116.004 231.053 115.171 229.295 116.77C223.557 121.964 212.146 132.764 212.146 132.764" fill="#FFA8A7"/>
<path d="M245.229 220.257L242.238 224.575C243.597 225.234 245.082 225.565 246.582 225.543C249.264 225.644 250.002 224.701 250.099 224.516C250.553 223.506 249.848 221.688 249.654 220.122L245.229 220.257Z" fill="#37474F"/>
<path d="M242.408 222.504C242.408 222.504 238.777 222.26 236.273 221.94C233.768 221.621 231.783 222.883 232.366 223.952C232.95 225.021 234.336 225.914 236.491 226.663C238.331 227.311 240.544 227.774 242.456 228.346C244.369 228.919 245.698 229.668 246.808 229.264C248.048 228.818 248.583 228.304 248.478 227.361C248.207 226.02 247.872 224.694 247.473 223.388L242.408 222.504Z" fill="#37474F"/>
<path d="M250.099 215.922C250.099 215.922 249.645 219.845 249.613 220.686C249.58 221.528 245.925 221.798 245.228 220.257L245.115 215.459L250.099 215.922Z" fill="#F28F8F"/>
<path d="M246.419 218.33L247.724 224.289C247.724 224.289 247.846 225.013 244.863 225.476C241.881 225.939 237.196 223.852 236.394 223.431C235.592 223.01 235.503 222.16 238.436 222.328C241.37 222.496 242.408 222.505 242.408 222.505L241.451 219.87L246.419 218.33Z" fill="#FFA8A7"/>
<path d="M252.562 119.422L254.629 118.824C254.629 118.824 258.949 133.025 259.427 134.397C259.905 135.769 260.448 137.217 259.516 138.909C258.406 140.921 252.562 149.01 252.562 149.01L248.851 145.239L253.065 137.225L249.337 129.397L252.562 119.422Z" fill="#F28F8F"/>
<path d="M231.337 100.978C230.853 100.034 230.607 98.9769 230.622 97.9067C230.638 96.8365 230.914 95.7879 231.426 94.8588C233.485 90.8941 238.072 88.9664 243.534 89.6988C246.063 90.0439 249.045 92.2241 250.674 95.4817C252.473 99.0929 252.643 106.366 253.105 109.118L231.337 100.978Z" fill="#37474F"/>
<path d="M231.191 102.536C231.191 102.536 229.895 105.103 230.122 105.339C230.458 105.543 230.825 105.685 231.208 105.76L231.191 102.536Z" fill="#FFA8A7"/>
<path d="M235.13 94.4211C233.72 95.3723 231.289 97.1232 231.183 102.889C231.07 108.782 231.88 110.726 232.723 111.408C233.29 111.871 236.621 111.635 238.048 111.29C239.474 110.945 243.583 108.832 245.066 105.625C246.808 101.854 246.452 96.3656 243.867 94.6821C242.551 93.8739 241.059 93.426 239.531 93.3803C238.003 93.3347 236.488 93.6928 235.13 94.4211Z" fill="#FFA8A7"/>
<path d="M250.099 138.631C252.595 142.671 254.961 146.207 255.48 150.769C256.55 160.357 253.049 171.317 252.295 178.413C253.712 180.431 254.529 182.837 254.645 185.332C254.645 188.27 250.099 215.922 250.099 215.922C250.099 215.922 246.792 216.966 245.115 215.459L241.994 164.591L243.615 158.395L250.099 138.631Z" fill="#FF6707"/>
<path opacity="0.2" d="M250.099 138.631C252.595 142.671 254.961 146.207 255.48 150.769C256.55 160.357 253.049 171.317 252.295 178.413C253.712 180.431 254.529 182.837 254.645 185.332C254.645 188.27 250.099 215.922 250.099 215.922C250.099 215.922 246.792 216.966 245.115 215.459L241.994 164.591L243.615 158.395L250.099 138.631Z" fill="black"/>
<path d="M241.994 164.591L243.615 158.396C246.719 157.547 249.712 156.312 252.53 154.717C252.53 154.717 250.844 157.907 245.998 159.658L243.494 167.613L243.283 185.837L241.994 164.591Z" fill="#FF6707"/>
<path opacity="0.3" d="M241.994 164.591L243.615 158.396C246.719 157.547 249.712 156.312 252.53 154.717C252.53 154.717 250.844 157.907 245.998 159.658L243.494 167.613L243.283 185.837L241.994 164.591Z" fill="black"/>
<path d="M250.099 138.631C251.436 140.904 254.629 144.776 253.948 148.505C253.138 153.017 250.788 156.19 243.64 158.395L236.929 183.648C236.929 183.648 240.422 187.016 241.492 190.273C242.562 193.531 246.419 218.346 246.419 218.346C246.419 218.346 245.22 220.375 241.452 219.887C241.452 219.887 228.314 188.741 227.39 186.713C226.269 184.658 225.876 182.26 226.28 179.936C226.694 176.67 231.143 140.92 231.143 140.92L250.099 138.631Z" fill="#FF6707"/>
<path opacity="0.2" d="M250.099 138.631C251.436 140.904 254.629 144.776 253.948 148.505C253.138 153.017 250.788 156.19 243.64 158.395L236.929 183.648C236.929 183.648 240.422 187.016 241.492 190.273C242.562 193.531 246.419 218.346 246.419 218.346C246.419 218.346 245.22 220.375 241.452 219.887C241.452 219.887 228.314 188.741 227.39 186.713C226.269 184.658 225.876 182.26 226.28 179.936C226.694 176.67 231.143 140.92 231.143 140.92L250.099 138.631Z" fill="black"/>
<path d="M252.562 119.421L235.867 116.618C235.526 116.543 234.975 116.4 234.246 116.206C234.246 116.206 233.533 127.082 229.246 129.573C229.351 130.095 229.44 130.676 229.521 131.341C229.772 133.429 231.142 140.887 231.142 140.887C231.142 140.887 237.625 144.144 242.95 142.57C248.275 140.996 250.074 138.647 250.074 138.647L247.407 134.136C248.153 132.258 251.508 124.716 252.562 119.421Z" fill="#FF6707"/>
<path opacity="0.7" d="M252.562 119.421L235.867 116.618C235.526 116.543 234.975 116.4 234.246 116.206C234.246 116.206 233.533 127.082 229.246 129.573C229.351 130.095 229.44 130.676 229.521 131.341C229.772 133.429 231.142 140.887 231.142 140.887C231.142 140.887 237.625 144.144 242.95 142.57C248.275 140.996 250.074 138.647 250.074 138.647L247.407 134.136C248.153 132.258 251.508 124.716 252.562 119.421Z" fill="white"/>
<path d="M248.162 132.343C245.945 133.726 243.622 134.917 241.216 135.903C243.399 135.858 245.537 135.245 247.432 134.119L248.162 132.343Z" fill="#FF6707"/>
<path d="M234.717 94.7075C234.717 94.7075 233.907 100.179 235.819 103.395C235.819 103.395 236.533 101.214 238.307 101.627C240.082 102.039 240.179 104.472 238.931 105.836C238.614 106.218 238.2 106.5 237.735 106.649C237.271 106.798 236.775 106.808 236.306 106.677C236.306 106.677 236.022 110.634 235.868 113.95C235.714 117.267 234.871 124.498 238.461 127.419C242.052 130.34 251.064 131.366 255.286 125.238C257.636 121.829 254.516 115.802 253.065 109.043C251.728 102.831 250.974 93.6216 244.629 92.1401C238.283 90.6585 234.717 94.7075 234.717 94.7075Z" fill="#37474F"/>
<path d="M258.001 19.9501L256.664 20.7918C256.776 20.2976 256.838 19.7927 256.85 19.2851C256.85 16.4651 254.946 15.3287 252.595 16.7598C251.88 17.2079 251.242 17.7769 250.707 18.4433C250.707 14.6553 248.146 13.1149 244.985 15.0089C243.32 16.1371 241.934 17.6572 240.94 19.4459C239.945 21.2345 239.371 23.2414 239.264 25.3037C239.264 25.4973 239.264 25.6825 239.264 25.8677C238.449 25.7613 237.625 25.9581 236.938 26.4233C235.699 27.2614 234.669 28.3911 233.929 29.7206C233.19 31.0501 232.763 32.5419 232.683 34.0749C232.683 34.4313 232.718 34.7868 232.788 35.1356L232.075 35.5649C230.138 36.7265 228.566 38.9909 228.566 40.6155C228.566 42.2401 230.138 42.6273 232.075 41.4572L258.009 25.9266C259.946 24.765 261.518 22.5006 261.518 20.876C261.518 19.2514 259.938 18.78 258.001 19.9501Z" fill="#879CA7"/>
</svg>
