<svg width="23" height="23" viewBox="0 0 23 23" fill="none" xmlns="http://www.w3.org/2000/svg">
<circle cx="11.5" cy="11.5" r="11" fill="#FF1414" stroke="white"/>
<path fill-rule="evenodd" clip-rule="evenodd" d="M8.03434 7.49031C7.84729 7.28716 7.53098 7.27411 7.32783 7.46115C7.12468 7.6482 7.11163 7.96451 7.29868 8.16766L11.0879 12.283L7.63803 16.0041C7.45029 16.2066 7.46225 16.523 7.66476 16.7107C7.86726 16.8985 8.18361 16.8865 8.37136 16.684L11.7674 13.021L14.9204 16.4454C15.1074 16.6486 15.4238 16.6616 15.6269 16.4746C15.83 16.2875 15.8431 15.9712 15.6561 15.7681L12.4494 12.2854L16.0215 8.43246C16.2092 8.22996 16.1972 7.9136 15.9947 7.72586C15.7922 7.53812 15.4759 7.55008 15.2881 7.75258L11.7699 11.5474L8.03434 7.49031Z" fill="white"/>
<path d="M7.32783 7.46115L8.00518 8.19681L8.00518 8.19681L7.32783 7.46115ZM8.03434 7.49031L7.29868 8.16766L7.29868 8.16766L8.03434 7.49031ZM7.29868 8.16766L6.56302 8.84501L6.56302 8.84501L7.29868 8.16766ZM11.0879 12.283L11.8212 12.9629L12.4494 12.2854L11.8236 11.6057L11.0879 12.283ZM7.63803 16.0041L8.37136 16.684H8.37136L7.63803 16.0041ZM7.66476 16.7107L8.34463 15.9774L8.34463 15.9774L7.66476 16.7107ZM8.37136 16.684L9.10468 17.3639L8.37136 16.684ZM11.7674 13.021L12.503 12.3436L11.7699 11.5474L11.034 12.3411L11.7674 13.021ZM14.9204 16.4454L14.1847 17.1228L14.9204 16.4454ZM15.6561 15.7681L14.9204 16.4454L15.6561 15.7681ZM12.4494 12.2854L11.7161 11.6055L11.0879 12.283L11.7137 12.9627L12.4494 12.2854ZM16.0215 8.43246L16.7548 9.11234L16.7548 9.11234L16.0215 8.43246ZM15.9947 7.72586L15.3149 8.45918L15.3149 8.45919L15.9947 7.72586ZM15.2881 7.75258L16.0215 8.43246L16.0215 8.43246L15.2881 7.75258ZM11.7699 11.5474L11.0342 12.2248L11.7674 13.021L12.5032 12.2273L11.7699 11.5474ZM8.00518 8.19681C7.80204 8.38386 7.48572 8.37081 7.29868 8.16766L8.76999 6.81295C8.20885 6.20351 7.25991 6.16436 6.65048 6.7255L8.00518 8.19681ZM8.03434 7.49031C8.22138 7.69345 8.20833 8.00976 8.00518 8.19681L6.65048 6.72549C6.04104 7.28663 6.00188 8.23558 6.56302 8.84501L8.03434 7.49031ZM11.8236 11.6057L8.03434 7.49031L6.56302 8.84501L10.3522 12.9604L11.8236 11.6057ZM8.37136 16.684L11.8212 12.9629L10.3546 11.6032L6.90471 15.3242L8.37136 16.684ZM8.34463 15.9774C8.54714 16.1651 8.5591 16.4815 8.37136 16.684L6.90471 15.3242C6.34148 15.9317 6.37737 16.8808 6.98488 17.444L8.34463 15.9774ZM7.63803 16.0041C7.82577 15.8016 8.14213 15.7896 8.34463 15.9774L6.98488 17.444C7.59238 18.0073 8.54145 17.9714 9.10468 17.3639L7.63803 16.0041ZM11.034 12.3411L7.63803 16.0041L9.10468 17.3639L12.5007 13.7009L11.034 12.3411ZM15.6561 15.7681L12.503 12.3436L11.0317 13.6983L14.1847 17.1228L15.6561 15.7681ZM14.9495 15.7389C15.1527 15.5519 15.469 15.5649 15.6561 15.7681L14.1847 17.1228C14.7459 17.7322 15.6948 17.7714 16.3043 17.2102L14.9495 15.7389ZM14.9204 16.4454C14.7333 16.2423 14.7464 15.926 14.9495 15.7389L16.3043 17.2102C16.9137 16.6491 16.9528 15.7002 16.3917 15.0907L14.9204 16.4454ZM11.7137 12.9627L14.9204 16.4454L16.3917 15.0907L13.185 11.608L11.7137 12.9627ZM15.2881 7.75258L11.7161 11.6055L13.1827 12.9653L16.7548 9.11234L15.2881 7.75258ZM15.3149 8.45919C15.1124 8.27144 15.1004 7.95508 15.2881 7.75258L16.7548 9.11234C17.318 8.50483 17.2821 7.55576 16.6746 6.99253L15.3149 8.45919ZM16.0215 8.43246C15.8337 8.63496 15.5174 8.64693 15.3149 8.45918L16.6746 6.99254C16.0671 6.4293 15.118 6.4652 14.5548 7.07271L16.0215 8.43246ZM12.5032 12.2273L16.0215 8.43246L14.5548 7.07271L11.0366 10.8675L12.5032 12.2273ZM7.29868 8.16766L11.0342 12.2248L12.5056 10.8701L8.76999 6.81295L7.29868 8.16766Z" fill="white"/>
</svg>
