<svg width="23" height="23" viewBox="0 0 23 23" fill="none" xmlns="http://www.w3.org/2000/svg">
<circle cx="11.5" cy="11.5" r="11" fill="#26EC3A" stroke="white"/>
<path fill-rule="evenodd" clip-rule="evenodd" d="M16.9525 8.14176C17.119 7.92147 17.0754 7.60791 16.8552 7.44138C16.6349 7.27486 16.3213 7.31844 16.1548 7.53872L9.74202 16.0217L6.85895 11.8091C6.70299 11.5812 6.39182 11.5229 6.16394 11.6789C5.93606 11.8349 5.87776 12.146 6.03372 12.3739L9.16297 16.9462C9.21695 17.025 9.28953 17.0836 9.37081 17.12C9.39767 17.1551 9.42966 17.1872 9.46662 17.2151C9.6869 17.3816 10.0005 17.338 10.167 17.1178L16.9525 8.14176Z" fill="white"/>
<path d="M16.8552 7.44138L16.2521 8.23909L16.2521 8.23909L16.8552 7.44138ZM16.9525 8.14176L17.7502 8.7448L17.7502 8.7448L16.9525 8.14176ZM16.1548 7.53872L16.9525 8.14176L16.9525 8.14176L16.1548 7.53872ZM9.74202 16.0217L8.91678 16.5865L9.70168 17.7333L10.5397 16.6247L9.74202 16.0217ZM6.85895 11.8091L7.68419 11.2443L7.68419 11.2443L6.85895 11.8091ZM6.16394 11.6789L5.59915 10.8537L5.59915 10.8537L6.16394 11.6789ZM6.03372 12.3739L5.20849 12.9387L5.20849 12.9387L6.03372 12.3739ZM9.16297 16.9462L9.9882 16.3814L9.16297 16.9462ZM9.37081 17.12L10.1649 16.5122L10.0108 16.3109L9.77943 16.2073L9.37081 17.12ZM9.46662 17.2151L8.86358 18.0128L8.86358 18.0128L9.46662 17.2151ZM10.167 17.1178L10.9647 17.7208H10.9647L10.167 17.1178ZM16.2521 8.23909C16.0318 8.07257 15.9883 7.759 16.1548 7.53872L17.7502 8.7448C18.2498 8.08395 18.1191 7.14324 17.4582 6.64367L16.2521 8.23909ZM16.9525 8.14176C16.786 8.36204 16.4724 8.40562 16.2521 8.23909L17.4582 6.64367C16.7974 6.14409 15.8567 6.27483 15.3571 6.93568L16.9525 8.14176ZM10.5397 16.6247L16.9525 8.14176L15.3571 6.93568L8.94431 15.4186L10.5397 16.6247ZM6.03372 12.3739L8.91678 16.5865L10.5673 15.4569L7.68419 11.2443L6.03372 12.3739ZM6.72873 12.5041C6.50085 12.6601 6.18968 12.6018 6.03372 12.3739L7.68419 11.2443C7.2163 10.5607 6.2828 10.3858 5.59915 10.8537L6.72873 12.5041ZM6.85895 11.8091C7.01492 12.037 6.95661 12.3482 6.72873 12.5041L5.59915 10.8537C4.9155 11.3216 4.7406 12.2551 5.20849 12.9387L6.85895 11.8091ZM9.9882 16.3814L6.85895 11.8091L5.20849 12.9387L8.33773 17.511L9.9882 16.3814ZM9.77943 16.2073C9.86163 16.2441 9.93511 16.3038 9.9882 16.3814L8.33773 17.511C8.4988 17.7463 8.71743 17.9231 8.9622 18.0327L9.77943 16.2073ZM10.0697 16.4174C10.1053 16.4444 10.1375 16.4763 10.1649 16.5122L8.57671 17.7278C8.65787 17.8338 8.75397 17.93 8.86358 18.0128L10.0697 16.4174ZM9.36928 16.5147C9.53581 16.2944 9.84938 16.2509 10.0697 16.4174L8.86358 18.0128C9.52443 18.5124 10.4651 18.3817 10.9647 17.7208L9.36928 16.5147ZM16.1548 7.53872L9.36928 16.5147L10.9647 17.7208L17.7502 8.7448L16.1548 7.53872Z" fill="white"/>
</svg>
