<svg width="23" height="24" viewBox="0 0 23 24" fill="none" xmlns="http://www.w3.org/2000/svg">
<path d="M19.7974 13.1099L19.7606 13.3898L19.9813 13.5658L22.4566 15.5408L22.4628 15.5457L22.469 15.5504C22.4855 15.5627 22.492 15.5754 22.4948 15.5893C22.4976 15.6039 22.4981 15.6325 22.4779 15.6719L20.1173 19.815L20.1172 19.8149L20.1113 19.8258C20.0959 19.8544 20.0784 19.8654 20.0642 19.8706C20.0488 19.8762 20.0276 19.878 20.0031 19.8701L17.0705 18.6745L16.8011 18.5647L16.5725 18.7446C16.0023 19.1935 15.3767 19.5692 14.6959 19.8503L14.4311 19.9597L14.3915 20.2434L13.9482 23.4184L13.9481 23.4183L13.9471 23.4264C13.9437 23.454 13.9325 23.4705 13.9209 23.4806C13.9088 23.4912 13.8906 23.5 13.8645 23.5H9.13547C9.11215 23.5 9.09636 23.4931 9.08218 23.4806C9.06747 23.4677 9.04785 23.442 9.03674 23.3984L8.59618 20.2434L8.55657 19.9597L8.2918 19.8503C7.61346 19.5703 6.99884 19.1948 6.41131 18.7416L6.18353 18.5659L5.91715 18.6745L2.9966 19.8652C2.96392 19.8733 2.93626 19.8703 2.91843 19.8641C2.90897 19.8608 2.90193 19.8565 2.89637 19.8518C2.89107 19.8473 2.88389 19.8398 2.87639 19.8258L2.87653 19.8257L2.87039 19.815L0.509823 15.6719C0.5022 15.6563 0.496382 15.6291 0.502575 15.5966C0.509041 15.5626 0.523782 15.5466 0.529026 15.5424L0.529162 15.5423L3.02916 13.5673L3.26034 13.3847L3.2126 13.094C3.1566 12.7529 3.13301 12.3687 3.13301 12C3.13301 11.6509 3.17774 11.2683 3.23724 10.906L3.28497 10.6153L3.05379 10.4327L0.553792 8.45766L0.54381 8.44977L0.533439 8.4424C0.525724 8.43692 0.52218 8.43234 0.520192 8.42916C0.517995 8.42564 0.515596 8.42036 0.514157 8.41242C0.511198 8.39609 0.512511 8.36719 0.531525 8.3332C0.531602 8.33307 0.531679 8.33293 0.531757 8.33279L2.88326 4.18405L2.88337 4.18411L2.88871 4.17419C2.90407 4.1456 2.92155 4.13461 2.93579 4.12944C2.95123 4.12385 2.97243 4.12202 2.99687 4.12988L5.92946 5.3255L6.19488 5.43371L6.42238 5.25935C6.99972 4.81686 7.62695 4.42925 8.30412 4.14966L8.56888 4.04034L8.6085 3.75665L9.05077 0.589371C9.05822 0.549128 9.07493 0.527219 9.08652 0.516883C9.09731 0.507254 9.11151 0.5 9.13547 0.5H13.8645C13.89 0.5 13.9098 0.50842 13.9252 0.521768C13.9402 0.534767 13.9553 0.556319 13.9616 0.589602L14.4038 3.75665L14.4434 4.04034L14.7082 4.14966C15.3865 4.42973 16.0012 4.80517 16.5887 5.2584L16.8165 5.4341L17.0829 5.3255L20.0034 4.13479C20.0361 4.12671 20.0637 4.12968 20.0816 4.13593C20.091 4.13924 20.0981 4.14349 20.1036 4.14819C20.1089 4.15266 20.1161 4.16023 20.1236 4.17419L20.1235 4.17426L20.1296 4.18503L22.4902 8.32809C22.4978 8.34369 22.5036 8.37086 22.4974 8.40339C22.491 8.43736 22.4762 8.45341 22.471 8.45755L22.4708 8.45766L19.9708 10.4327L19.7397 10.6153L19.7874 10.906C19.8435 11.2474 19.867 11.6192 19.867 12C19.867 12.3923 19.8436 12.758 19.7974 13.1099ZM6.5665 12C6.5665 14.7441 8.77844 17 11.5 17C14.2216 17 16.4335 14.7441 16.4335 12C16.4335 9.2559 14.2216 7 11.5 7C8.77844 7 6.5665 9.2559 6.5665 12Z" stroke="white"/>
</svg>
