<svg width="28" height="33" viewBox="0 0 28 33" fill="none" xmlns="http://www.w3.org/2000/svg">
<path d="M5.33333 9.98342C5.33333 7.60087 6.24643 5.3159 7.87174 3.63118C9.49706 1.94647 11.7015 1 14 1C16.2985 1 18.5029 1.94647 20.1283 3.63118C21.7536 5.3159 22.6667 7.60087 22.6667 9.98342C22.6667 20.4641 27 23.4586 27 23.4586H1C1 23.4586 5.33333 20.4641 5.33333 9.98342Z" stroke="#FF914D" stroke-width="2" stroke-linecap="round" stroke-linejoin="round"/>
<path d="M11.5012 30.3441C11.7552 30.7978 12.1197 31.1745 12.5583 31.4363C12.9968 31.6982 13.494 31.836 14.0001 31.836C14.5062 31.836 15.0035 31.6982 15.442 31.4363C15.8806 31.1745 16.2451 30.7978 16.499 30.3441" stroke="#FF914D" stroke-width="2" stroke-linecap="round" stroke-linejoin="round"/>
</svg>
