<svg width="24" height="24" viewBox="0 0 24 24" fill="none" xmlns="http://www.w3.org/2000/svg">
<path fill-rule="evenodd" clip-rule="evenodd" d="M4 6C4 3.79086 5.79086 2 8 2H16C18.2091 2 20 3.79086 20 6V18C20 20.2091 18.2091 22 16 22H8C5.79086 22 4 20.2091 4 18V6ZM8 4C6.89543 4 6 4.89543 6 6V18C6 19.1046 6.89543 20 8 20H16C17.1046 20 18 19.1046 18 18V6C18 4.89543 17.1046 4 16 4H8Z" fill="white"/>
<path fill-rule="evenodd" clip-rule="evenodd" d="M8 2H8.11111C9.35367 2 10.3977 2.84985 10.6938 4H13.3062C13.6023 2.84985 14.6463 2 15.8889 2H16V4H15.8889C15.5207 4 15.2222 4.29848 15.2222 4.66667C15.2222 5.40305 14.6253 6 13.8889 6H10.1111C9.37473 6 8.77778 5.40305 8.77778 4.66667C8.77778 4.29848 8.4793 4 8.11111 4H8V2Z" fill="white"/>
<path fill-rule="evenodd" clip-rule="evenodd" d="M15.6839 10.2705C16.0869 10.6482 16.1073 11.281 15.7295 11.6839L11.9795 15.6839C11.6213 16.0661 11.0289 16.107 10.6215 15.7778L8.37148 13.9596C7.94192 13.6125 7.87509 12.9829 8.22221 12.5533C8.56933 12.1237 9.19896 12.0569 9.62852 12.404L11.1559 13.6383L14.2705 10.3161C14.6482 9.91315 15.281 9.89274 15.6839 10.2705Z" fill="white"/>
</svg>
