<svg width="38" height="38" viewBox="0 0 38 38" fill="none" xmlns="http://www.w3.org/2000/svg">
<path d="M20.1571 19.7071C20.5476 19.3166 20.5476 18.6834 20.1571 18.2929L13.7931 11.9289C13.4026 11.5384 12.7695 11.5384 12.3789 11.9289C11.9884 12.3195 11.9884 12.9526 12.3789 13.3431L18.0358 19L12.3789 24.6569C11.9884 25.0474 11.9884 25.6805 12.3789 26.0711C12.7695 26.4616 13.4026 26.4616 13.7931 26.0711L20.1571 19.7071ZM9 20L19.45 20L19.45 18L9 18L9 20Z" fill="white"/>
<path d="M17 8C16.4477 8 16 8.44772 16 9C16 9.55228 16.4477 10 17 10V8ZM17 10H26.6462V8H17V10Z" fill="white"/>
<line x1="17.2346" y1="29" x2="24.8808" y2="29" stroke="white" stroke-width="2" stroke-linecap="round"/>
<line x1="26.0769" y1="8" x2="26.0769" y2="30" stroke="white" stroke-width="2"/>
<circle cx="19" cy="19" r="18" stroke="white" stroke-width="2"/>
</svg>
