<svg width="30" height="33" viewBox="0 0 30 33" fill="none" xmlns="http://www.w3.org/2000/svg">
<path d="M21.4408 20.7972H20.0858L19.6055 20.3051C21.2865 18.2275 22.2985 15.5302 22.2985 12.5961C22.2985 6.05339 17.307 0.75 11.1492 0.75C4.99142 0.75 0 6.05339 0 12.5961C0 19.1387 4.99142 24.4421 11.1492 24.4421C13.9108 24.4421 16.4494 23.3669 18.4048 21.5808L18.8679 22.0911V23.5309L27.4443 32.625L30 29.9095L21.4408 20.7972ZM11.1492 20.7972C6.87822 20.7972 3.43053 17.134 3.43053 12.5961C3.43053 8.0581 6.87822 4.39494 11.1492 4.39494C15.4202 4.39494 18.8679 8.0581 18.8679 12.5961C18.8679 17.134 15.4202 20.7972 11.1492 20.7972Z" fill="#FF914D"/>
</svg>
